<?xml version="1.0" encoding="utf-8"?>
<!-- Generator: Adobe Illustrator 26.0.1, SVG Export Plug-In . SVG Version: 6.00 Build 0)  -->
<svg version="1.1" id="Layer_1" xmlns="http://www.w3.org/2000/svg" xmlns:xlink="http://www.w3.org/1999/xlink" x="0px" y="0px"
	 viewBox="0 0 1829.6 648" style="enable-background:new 0 0 1829.6 648;" xml:space="preserve">
<style type="text/css">
	.st0{fill:#04AFBC;}
	.st1{fill:#00D4F3;}
	.st2{fill:#EFEFEF;stroke:#F7F7F7;stroke-width:8;stroke-miterlimit:10;}
	.st3{fill:#00D4F3;stroke:#00D4F3;stroke-width:8;stroke-miterlimit:10;}
</style>
<polygon class="st0" points="242.2,72.4 439.3,204.8 377.4,246.8 242.2,155.9 "/>
<polygon class="st1" points="242.2,339.5 439.3,204.8 439.3,292.3 242.2,423 "/>
<polygon class="st0" points="242.2,204.8 45,337.2 106.9,379.2 242.2,288.3 "/>
<polygon class="st1" points="242.2,471.9 45,337.2 45,424.7 242.2,555.4 "/>
<path class="st2" d="M781.8,441.7c0,16-5.9,24-17.6,24c-8.5,0-14.1-5.2-16.8-15.6c-14.5,10.4-30.4,15.6-48,15.6h-82.6
	c-23.5,0-43.1-7.9-58.9-23.6c-15.8-15.7-23.7-35.3-23.7-58.8v-82.6c0-23.8,7.8-43.5,23.5-59c15.6-15.6,35.4-23.3,59.2-23.3h82.6
	c17.5,0,33.5,5.2,48,15.6c2.7-10.4,8.3-15.6,16.8-15.6c11.7,0,17.6,8,17.6,24V441.7z M746.4,383.3v-82.8c0-13.3-4.5-24.4-13.5-33.5
	c-9-9-20.2-13.5-33.7-13.5h-82.6c-13.3,0-24.4,4.5-33.4,13.6c-9,9-13.5,20.2-13.5,33.5v82.9c0,13.1,4.5,24.3,13.6,33.4
	c9.1,9.1,20.2,13.7,33.3,13.7h82.6c13.3,0,24.4-4.5,33.5-13.6C741.8,407.8,746.4,396.7,746.4,383.3z"/>
<path class="st2" d="M1052.9,392.8c0,20.4-6.5,37.2-19.6,50.2c-13.1,13.1-29.8,19.6-50.2,19.6h-82.6c-38.9,0-64.7-18.1-77.3-54.3
	l-1-1c-2.4-5.6-3.6-10.5-3.6-14.5c0-11.2,5.9-16.8,17.6-16.8c7.1,0,13.3,5.2,18.4,15.6v1.3c6.3,23.1,21.6,34.6,45.9,34.6H983
	c9.9,0,18.1-3.3,24.6-9.9c6.5-6.6,9.8-14.9,9.8-24.8c0-10.3-3.2-18.8-9.6-25.7c-6.4-6.9-14.7-10.3-24.9-10.3h-93.9
	c-20.4,0-37.4-6.7-51-20.1c-13.6-13.4-20.4-30.2-20.4-50.6c0-20.3,6.8-37.1,20.4-50.2c13.6-13.1,30.6-19.7,51-19.7h81.1
	c37.2,0,62.7,17,76.5,51.1c0.3,1.2,1,2.2,2,3c2.7,5.3,4.1,10,4.1,14.2c0,6.6-3.5,11.6-10.5,15c-2.7,1.4-5.4,2-7.9,2
	c-7,0-12.7-5.2-17.1-15.6h-1c-6.3-23.5-21.7-35.2-46.2-35.2H889c-10.1,0-18.5,3.4-25.4,10.2c-6.9,6.8-10.3,15.2-10.3,25.2
	s3.5,18.4,10.4,25.2c6.9,6.8,15.5,10.2,25.6,10.2H983c20.2,0,36.9,6.8,50.1,20.4C1046.3,355.6,1052.9,372.5,1052.9,392.8z"/>
<path class="st2" d="M1336.5,441.7c0,16-5.9,24-17.7,24c-11.8,0-17.7-8-17.7-24V300.5c0-13.3-4.5-24.4-13.5-33.5
	c-9-9-20.2-13.5-33.7-13.5h-82.6c-13.3,0-24.4,4.5-33.4,13.6c-9,9.1-13.5,20.3-13.5,33.6v141.1c0,16-5.9,24-17.7,24
	c-11.8,0-17.7-8-17.7-24V77.2c0-16.2,5.9-24.2,17.7-24.2c11.8,0,17.7,8.1,17.7,24.2v155.6c14-9.7,29.6-14.5,47-14.5h82.7
	c23.7,0,43.3,7.8,59,23.5c15.7,15.6,23.5,35.3,23.5,58.9V441.7z"/>
<path class="st3" d="M1545.8,143.5c-6,16.3-15,22.2-26.9,17.8c-12-4.4-15-14.7-9-31c5.7-15.6,14.6-21.2,26.6-16.8
	C1548.4,117.9,1551.5,127.9,1545.8,143.5z M1431.7,453.3c-6,16.2-14.9,22.1-26.9,17.7c-12-4.4-15-14.7-9-30.9l74.3-202
	c6-16.2,14.9-22.1,26.9-17.7c12,4.4,15,14.7,9,30.9L1431.7,453.3z"/>
<path class="st2" d="M1786.6,603.7c0,16-5.9,24-17.7,24c-11.8,0-17.7-8-17.7-24V448.1c-14.8,9.7-30.5,14.5-47.1,14.5h-82.5
	c-23.8,0-43.5-7.8-59.1-23.4c-15.6-15.6-23.4-35.3-23.4-59.1v-81.3c0-23.8,7.8-43.5,23.5-59.1c15.6-15.6,35.4-23.4,59.2-23.4h82.6
	c17.5,0,33.5,5.2,48,15.6c2.7-10.4,8.3-15.6,16.8-15.6c11.7,0,17.6,7.6,17.6,22.9V603.7z M1751.1,380.3v-81.4
	c0-13.4-4.5-24.8-13.5-34.1c-9-9.3-20.2-13.9-33.7-13.9h-82.6c-13.6,0-24.8,4.5-33.7,13.6c-8.8,9.1-13.3,20.4-13.3,34.1v81.5
	c0,13.5,4.5,24.7,13.4,33.7c8.9,9,20.1,13.5,33.5,13.5h82.6c13.3,0,24.4-4.5,33.5-13.6C1746.6,404.7,1751.1,393.5,1751.1,380.3z"/>
</svg>
