<?xml version="1.0" encoding="utf-8"?>
<!-- Generator: Adobe Illustrator 26.0.1, SVG Export Plug-In . SVG Version: 6.00 Build 0)  -->
<svg version="1.1" id="Layer_1" xmlns="http://www.w3.org/2000/svg" xmlns:xlink="http://www.w3.org/1999/xlink" x="0px" y="0px"
	 viewBox="0 0 1833.9 618.4" style="enable-background:new 0 0 1833.9 618.4;" xml:space="preserve">
<style type="text/css">
	.st0{fill:#04AFBC;}
	.st1{fill:#00D4F3;}
	.st2{fill:#EFEFEF;stroke:#F7F7F7;stroke-width:8;stroke-miterlimit:10;}
	.st3{fill:#00D4F3;stroke:#00D4F3;stroke-width:8;stroke-miterlimit:10;}
	.st4{fill:#EFEFEF;stroke:#F7F7F7;stroke-width:0.5;stroke-miterlimit:10;}
</style>
<polygon class="st0" points="249.3,41.2 446.5,173.6 384.6,215.7 249.3,124.8 "/>
<polygon class="st1" points="249.3,308.3 446.5,173.6 446.5,261.1 249.3,391.8 "/>
<polygon class="st0" points="249.3,173.6 52.1,306 114.1,348.1 249.3,257.2 "/>
<polygon class="st1" points="249.3,440.7 52.1,306 52.1,393.5 249.3,524.2 "/>
<path class="st2" d="M789,410.6c0,16-5.9,24-17.6,24c-8.5,0-14.1-5.2-16.8-15.6c-14.5,10.4-30.4,15.6-48,15.6H624
	c-23.5,0-43.1-7.9-58.9-23.6c-15.8-15.7-23.7-35.3-23.7-58.8v-82.6c0-23.8,7.8-43.5,23.5-59c15.6-15.6,35.4-23.3,59.2-23.3h82.6
	c17.5,0,33.5,5.2,48,15.6c2.7-10.4,8.3-15.6,16.8-15.6c11.7,0,17.6,8,17.6,24V410.6z M753.5,352.2v-82.8c0-13.3-4.5-24.4-13.5-33.5
	c-9-9-20.2-13.5-33.7-13.5h-82.6c-13.3,0-24.4,4.5-33.4,13.6c-9,9-13.5,20.2-13.5,33.5v82.9c0,13.1,4.5,24.3,13.6,33.4
	c9.1,9.1,20.2,13.7,33.3,13.7h82.6c13.3,0,24.4-4.5,33.5-13.6C749,376.7,753.5,365.5,753.5,352.2z"/>
<path class="st2" d="M1060.1,361.6c0,20.4-6.5,37.2-19.6,50.2c-13.1,13.1-29.8,19.6-50.2,19.6h-82.6c-38.9,0-64.7-18.1-77.3-54.3
	l-1-1c-2.4-5.6-3.6-10.5-3.6-14.5c0-11.2,5.9-16.8,17.6-16.8c7.1,0,13.3,5.2,18.4,15.6v1.3c6.3,23.1,21.6,34.6,45.9,34.6h82.6
	c9.9,0,18.1-3.3,24.6-9.9c6.5-6.6,9.8-14.9,9.8-24.8c0-10.3-3.2-18.8-9.6-25.7c-6.4-6.9-14.7-10.3-24.9-10.3h-93.9
	c-20.4,0-37.4-6.7-51-20.1c-13.6-13.4-20.4-30.2-20.4-50.6c0-20.3,6.8-37.1,20.4-50.2c13.6-13.1,30.6-19.7,51-19.7h81.1
	c37.2,0,62.7,17,76.5,51.1c0.3,1.2,1,2.2,2,3c2.7,5.3,4.1,10,4.1,14.2c0,6.6-3.5,11.6-10.5,15c-2.7,1.4-5.4,2-7.9,2
	c-7,0-12.7-5.2-17.1-15.6h-1c-6.3-23.5-21.7-35.2-46.2-35.2h-81.3c-10.1,0-18.5,3.4-25.4,10.2c-6.9,6.8-10.3,15.2-10.3,25.2
	c0,10,3.5,18.4,10.4,25.2c6.9,6.8,15.5,10.2,25.6,10.2h93.9c20.2,0,36.9,6.8,50.1,20.4C1053.5,324.4,1060.1,341.4,1060.1,361.6z"/>
<path class="st2" d="M1343.6,410.6c0,16-5.9,24-17.7,24c-11.8,0-17.7-8-17.7-24V269.3c0-13.3-4.5-24.4-13.5-33.5
	c-9-9-20.2-13.5-33.7-13.5h-82.6c-13.3,0-24.4,4.5-33.4,13.6c-9,9.1-13.5,20.3-13.5,33.6v141c0,16-5.9,24-17.7,24
	c-11.8,0-17.7-8-17.7-24V46.1c0-16.2,5.9-24.2,17.7-24.2c11.8,0,17.7,8.1,17.7,24.2v155.6c14-9.7,29.6-14.5,47-14.5h82.7
	c23.7,0,43.3,7.8,59,23.5c15.7,15.6,23.5,35.3,23.5,58.9V410.6z"/>
<path class="st3" d="M1424.7,427.6c0-17.3,6.4-26,19.1-26c12.8,0,19.1,8.7,19.1,26c0,16.6-6.4,24.9-19.1,24.9
	C1431,452.5,1424.7,444.2,1424.7,427.6z M1424.7,97.5c0-17.2,6.4-25.9,19.1-25.9c12.8,0,19.1,8.6,19.1,25.9v215.2
	c0,17.2-6.4,25.9-19.1,25.9c-12.7,0-19.1-8.6-19.1-25.9V97.5z"/>
<path class="st4" d="M1781.7,572.5c0,16-5.9,24-17.7,24c-11.8,0-17.7-8-17.7-24V416.9c-14.8,9.7-30.5,14.5-47.1,14.5h-82.5
	c-23.8,0-43.5-7.8-59.1-23.4c-15.6-15.6-23.4-35.3-23.4-59.1v-81.3c0-23.8,7.8-43.5,23.5-59.1c15.6-15.6,35.4-23.4,59.2-23.4h82.6
	c17.5,0,33.5,5.2,48,15.6c2.7-10.4,8.3-15.6,16.8-15.6c11.7,0,17.6,7.6,17.6,22.9V572.5z M1746.3,349.1v-81.4
	c0-13.4-4.5-24.8-13.5-34.1c-9-9.3-20.2-13.9-33.7-13.9h-82.6c-13.6,0-24.8,4.5-33.7,13.6c-8.8,9.1-13.3,20.4-13.3,34.1V349
	c0,13.5,4.5,24.7,13.4,33.7c8.9,9,20.1,13.5,33.5,13.5h82.6c13.3,0,24.4-4.5,33.5-13.6C1741.7,373.5,1746.3,362.4,1746.3,349.1z"/>
</svg>
